# xmcd
#
# Track frame offsets:
#	150
#	21792
#	43322
#	56660
#	74605
#	96490
#	117872
#	135552
#	146707
#	165355
#	183432
#	203520
#	222620
#	251235
#	273382
#
# Disc length: 3858 seconds
#
# Revision: 1
# Processed by: cddbd v1.5.1PL0 Copyright (c) Steve Scherf et al.
# Submitted via: CDex 1.50Beta5
#
DISCID=ed0f100f
DTITLE=吉幾三 - 全曲集 Disc 2
DYEAR=1999
DGENRE=Pop
TTITLE0=通天閣
TTITLE1=旅の途中で
TTITLE2=俺ら東京さ行ぐだ
TTITLE3=旅先から…
TTITLE4=酔歌
TTITLE5=あんた
TTITLE6=哀のブルース
TTITLE7=俺はぜったいプレスリー
TTITLE8=津軽平野
TTITLE9=冬の酒
TTITLE10=津軽恋唄
TTITLE11=門出
TTITLE12=海猫
TTITLE13=津軽路
TTITLE14=前略ふるさと様
EXTD=
EXTT0=
EXTT1=
EXTT2=
EXTT3=
EXTT4=
EXTT5=
EXTT6=
EXTT7=
EXTT8=
EXTT9=
EXTT10=
EXTT11=
EXTT12=
EXTT13=
EXTT14=
PLAYORDER=
